<svg width="121" height="110" viewBox="0 0 121 110" fill="none" xmlns="http://www.w3.org/2000/svg">
    <path fill-rule="evenodd" clip-rule="evenodd" d="M77.7618 99.9947C70.0638 113.328 50.8188 113.328 43.1208 99.9947L2.70933 30C-4.98867 16.6667 4.63383 -1.34596e-06 20.0298 0L100.853 7.06577e-06C116.249 8.41173e-06 125.871 16.6667 118.173 30L77.7618 99.9947ZM52.9938 87.0952L15.6997 22.5C13.7752 19.1667 16.1809 15 20.0298 15L42.9938 15C48.5166 15 52.9938 19.4772 52.9938 25V87.0952ZM67.9938 86.9135L105.183 22.5C107.107 19.1667 104.702 15 100.853 15L77.9938 15C72.4709 15 67.9938 19.4772 67.9938 25V86.9135Z" fill="url(#paint0_linear_5_16)" />
    <defs>
        <linearGradient id="paint0_linear_5_16" x1="111.5" y1="-5.55521e-07" x2="50.5" y2="102" gradientUnits="userSpaceOnUse">
            <stop stop-color="#565656" />
            <stop offset="1" stop-color="#0D0D0D" />
        </linearGradient>
    </defs>
</svg>
    